<?xml version="1.0" encoding="UTF-8"?>
<svg xmlns="http://www.w3.org/2000/svg" xmlns:xlink="http://www.w3.org/1999/xlink" width="44px" height="50px" viewBox="0 0 44 50" version="1.1">
<g id="surface1">
<path style=" stroke:none;fill-rule:nonzero;fill:rgb(58.431373%,74.901961%,27.45098%);fill-opacity:1;" d="M 38.460938 9.820312 C 38.425781 9.570312 38.207031 9.429688 38.023438 9.414062 C 37.84375 9.398438 34.003906 9.117188 34.003906 9.117188 C 34.003906 9.117188 31.339844 6.480469 31.046875 6.1875 C 30.753906 5.898438 30.183594 5.984375 29.960938 6.050781 C 29.929688 6.058594 29.378906 6.230469 28.46875 6.507812 C 27.578125 3.957031 26.007812 1.613281 23.246094 1.613281 C 23.167969 1.613281 23.089844 1.613281 23.011719 1.621094 C 22.226562 0.582031 21.25 0.132812 20.410156 0.132812 C 13.972656 0.132812 10.894531 8.152344 9.929688 12.226562 C 7.429688 13 5.652344 13.550781 5.425781 13.621094 C 4.027344 14.058594 3.984375 14.101562 3.800781 15.414062 C 3.664062 16.40625 0.0078125 44.5625 0.0078125 44.5625 L 28.480469 49.875 L 43.910156 46.550781 C 43.910156 46.550781 38.492188 10.070312 38.460938 9.820312 Z M 26.894531 6.996094 L 24.488281 7.738281 C 24.488281 7.566406 24.488281 7.402344 24.488281 7.21875 C 24.488281 5.632812 24.269531 4.355469 23.914062 3.34375 C 25.335938 3.523438 26.285156 5.136719 26.894531 6.996094 Z M 22.144531 3.660156 C 22.542969 4.648438 22.800781 6.066406 22.800781 7.980469 C 22.800781 8.078125 22.800781 8.167969 22.796875 8.257812 C 21.230469 8.742188 19.527344 9.265625 17.824219 9.792969 C 18.78125 6.109375 20.578125 4.328125 22.144531 3.660156 Z M 20.234375 1.855469 C 20.511719 1.855469 20.792969 1.949219 21.058594 2.132812 C 18.996094 3.097656 16.785156 5.535156 15.851562 10.402344 L 11.917969 11.617188 C 13.011719 7.902344 15.609375 1.855469 20.234375 1.855469 Z M 20.234375 1.855469 "/>
<path style=" stroke:none;fill-rule:nonzero;fill:rgb(36.862745%,55.686275%,24.313725%);fill-opacity:1;" d="M 38.023438 9.414062 C 37.84375 9.398438 34.003906 9.117188 34.003906 9.117188 C 34.003906 9.117188 31.339844 6.480469 31.046875 6.1875 C 30.9375 6.078125 30.789062 6.023438 30.636719 6 L 28.484375 49.875 L 43.910156 46.550781 C 43.910156 46.550781 38.492188 10.070312 38.460938 9.820312 C 38.425781 9.570312 38.207031 9.429688 38.023438 9.414062 "/>
<path style=" stroke:none;fill-rule:nonzero;fill:rgb(100%,100%,100%);fill-opacity:1;" d="M 23.246094 17.910156 L 21.34375 23.546875 C 21.34375 23.546875 19.675781 22.660156 17.632812 22.660156 C 14.636719 22.660156 14.488281 24.53125 14.488281 25.003906 C 14.488281 27.578125 21.222656 28.566406 21.222656 34.597656 C 21.222656 39.34375 18.203125 42.398438 14.128906 42.398438 C 9.242188 42.398438 6.742188 39.367188 6.742188 39.367188 L 8.050781 35.058594 C 8.050781 35.058594 10.621094 37.257812 12.789062 37.257812 C 14.207031 37.257812 14.78125 36.144531 14.78125 35.335938 C 14.78125 31.976562 9.253906 31.824219 9.253906 26.304688 C 9.253906 21.660156 12.601562 17.164062 19.355469 17.164062 C 21.957031 17.164062 23.246094 17.910156 23.246094 17.910156 "/>
</g>
</svg>
